PathFileType	4	(X/Y/Z)	G:\Shared drives\HPL_Drive\Nord Sprinting Study\Kristen_Nord_test\Trimmed_Nord000005.trc
DataRate	CameraRate	NumFrames	NumMarkers	Units	OrigDataRate	OrigDataStartFrame	OrigNumFrames
200.00	200.00	      5	52	mm	200.00	2180	      2491
Frame#	Time	C7			R_Shoulder			L_Shoulder			Sternum			R_humerus			R_elbow_med			R_elbow_lat			R_forearm			R_wrist_radius			R_wrist_ulna			L_humerus			L_elbow_med			L_elbow_lat			L_forearm			L_wrist_radius			L_wrist_ulna			r.ASIS			r.PSIS			r_IC			L.ASIS			L.PSIS			l_IC			r_thigh1			r_thigh2			r_thigh3			r_thigh4			r_thigh5			r_knee			r_mknee			r_shank_antsup			r_sh2			r_sh3			r_sh4			r_ankle			r_mankle			r_calc			r_5meta			r_toe			L_thigh1			L_thigh2			L_thigh3			L_thigh4			L_knee			L_mknee			L_shank_antsup			L_sh2			L_sh3			L_ankle			L_mankle			L_calc			L_5meta			L_toe			
		X1	Y1	Z1	X2	Y2	Z2	X3	Y3	Z3	X4	Y4	Z4	X5	Y5	Z5	X6	Y6	Z6	X7	Y7	Z7	X8	Y8	Z8	X9	Y9	Z9	X10	Y10	Z10	X11	Y11	Z11	X12	Y12	Z12	X13	Y13	Z13	X14	Y14	Z14	X15	Y15	Z15	X16	Y16	Z16	X17	Y17	Z17	X18	Y18	Z18	X19	Y19	Z19	X20	Y20	Z20	X21	Y21	Z21	X22	Y22	Z22	X23	Y23	Z23	X24	Y24	Z24	X25	Y25	Z25	X26	Y26	Z26	X27	Y27	Z27	X28	Y28	Z28	X29	Y29	Z29	X30	Y30	Z30	X31	Y31	Z31	X32	Y32	Z32	X33	Y33	Z33	X34	Y34	Z34	X35	Y35	Z35	X36	Y36	Z36	X37	Y37	Z37	X38	Y38	Z38	X39	Y39	Z39	X40	Y40	Z40	X41	Y41	Z41	X42	Y42	Z42	X43	Y43	Z43	X44	Y44	Z44	X45	Y45	Z45	X46	Y46	Z46	X47	Y47	Z47	X48	Y48	Z48	X49	Y49	Z49	X50	Y50	Z50	X51	Y51	Z51	X52	Y52	Z52	

2180	10.895	1185.21497	969.22327	1020.96899	1311.27466	992.74487	997.54510	1059.19153	1008.30231	1004.91162	1184.76086	1044.06921	903.28833	1447.30176	875.25745	998.18579	1539.98792	768.93793	927.66858	1524.43982	760.62445	1005.76361	1586.32556	870.17822	1040.98181	1621.19653	981.56494	1032.12146	1653.93665	958.97247	1060.65930	869.15179	926.23950	1002.95081	760.93768	886.66705	917.83972	767.12079	854.63416	989.65076	792.18890	991.62280	1046.00146	821.49896	1087.71423	1048.94556	773.48956	1077.00940	1080.50793	1308.00012	699.41388	584.65051	1261.77271	658.41473	769.79340	1341.02979	738.80023	685.98688	1074.52991	681.33716	583.46667	1146.25989	651.06793	765.57910	1047.97449	722.07220	671.70831	1370.01318	521.51373	440.38611	1373.67175	443.00443	359.86792	1381.45752	393.25677	363.24362	1387.38342	444.09848	512.52649	1372.42505	364.55334	425.30933	1369.09204	346.97421	304.59763	1247.88538	332.75870	318.89844	1397.30359	217.31856	315.92062	1386.90308	98.06812	330.66199	1399.21765	224.88678	392.53003	1388.93372	110.46524	412.29422	1381.66284	-65.24501	387.00766	1300.75732	-58.21434	361.80884	1325.99597	-84.22388	450.69684	1388.99219	-156.44637	301.64801	1353.27283	-137.84795	246.89943	1014.56873	517.49640	439.90228	1015.42584	427.22809	330.47455	1011.55701	429.18857	520.71283	1018.33405	342.35504	414.19089	1005.25531	328.87509	328.77264	1128.09900	317.48267	300.92996	988.74646	215.80063	324.65567	1002.72607	230.58772	414.04773	1017.40570	109.33436	419.78564	1026.94641	-72.74172	400.72098	1092.69641	-51.87779	341.75180	1079.50330	-57.16317	441.52719	1038.68384	-192.68066	321.14423	1070.21118	-176.25630	258.18454	
2181	10.900	1185.28125	969.45697	1020.74823	1311.39282	992.92200	997.31342	1059.26001	1008.54462	1004.60718	1184.91443	1044.26282	903.06427	1447.33289	875.31860	998.07794	1539.89795	768.82318	927.70764	1524.34619	760.59088	1005.81390	1586.29126	870.16467	1040.81030	1621.34790	981.46857	1031.91028	1654.01941	958.89697	1060.50610	869.27612	926.34076	1002.49823	761.57709	886.76855	917.22766	767.30389	854.63763	989.12012	792.17078	991.66016	1045.41553	821.39130	1087.78223	1048.43066	773.25922	1077.04614	1079.86829	1308.09607	699.38434	584.60571	1261.82898	658.52924	769.75323	1341.15771	738.81458	685.93622	1074.63013	681.48346	583.33838	1146.24731	651.23535	765.50812	1048.07959	722.25385	671.54517	1370.12634	521.37683	440.38412	1373.70642	442.99176	359.90936	1381.43787	393.17416	363.23941	1387.35645	444.07272	512.54614	1372.37708	364.48508	425.31320	1369.06958	346.93985	304.61102	1247.86328	332.78809	318.89813	1397.21143	217.24008	315.99280	1386.46082	98.12296	330.16003	1399.05823	224.80389	392.57266	1388.76538	110.41650	412.28491	1381.36670	-65.30387	387.02051	1300.53369	-58.23161	361.75824	1325.68933	-84.26331	450.71478	1388.67407	-156.49428	301.66711	1352.92041	-137.89281	246.82423	1014.61035	517.60272	439.82272	1015.55365	427.34369	330.38034	1011.53003	429.23633	520.60223	1018.30695	342.43387	414.18802	1005.29004	328.93658	328.75101	1128.11560	317.45331	300.96628	988.70258	215.91673	324.59549	1002.67688	230.63023	414.03867	1017.18689	109.40601	419.77182	1026.63147	-72.69601	400.70142	1092.36377	-51.87977	341.75208	1079.15930	-57.19930	441.50095	1038.27771	-192.63892	321.13181	1069.82544	-176.21797	258.17130	
2182	10.905	1185.36768	969.70795	1020.55408	1311.55127	993.08258	997.11926	1059.32581	1008.79950	1004.26196	1185.02356	1044.50012	902.84424	1447.36792	875.37201	997.98419	1539.73914	768.59381	927.61597	1524.21997	760.56085	1005.87616	1586.25281	870.10626	1040.85291	1620.78552	981.03461	1031.72485	1654.08984	958.79181	1060.37610	869.41095	926.45966	1002.04248	761.47382	886.62018	916.79047	767.52936	854.64923	988.53802	792.13794	991.69214	1044.86963	821.27820	1087.85205	1047.87451	773.13843	1077.08704	1079.23132	1308.21252	699.35461	584.55951	1261.83630	658.62201	769.70215	1341.25330	738.82965	685.89240	1074.75220	681.63995	583.17188	1146.29675	651.43683	765.39746	1048.15967	722.42548	671.37482	1370.22791	521.29260	440.42627	1373.72876	442.99472	359.85611	1381.45007	393.06512	363.26624	1387.36829	443.98724	512.59589	1372.33203	364.42892	425.34067	1369.07825	346.87659	304.60129	1247.83337	332.77905	318.91302	1397.07971	217.21852	316.04199	1386.53882	97.92919	330.72635	1398.93188	224.72003	392.60928	1388.60962	110.37520	412.33630	1381.04565	-65.35214	387.06635	1300.23291	-58.26506	361.71664	1325.35889	-84.27543	450.70667	1388.81177	-156.58012	301.81769	1352.70837	-137.93768	246.82359	1014.71649	517.67975	439.68643	1015.52008	427.31833	330.36368	1011.51825	429.43134	520.58887	1018.21875	342.51685	414.12476	1005.30084	328.99731	328.75443	1128.14844	317.43134	301.01602	988.66479	216.01154	324.63275	1002.53925	230.68402	414.00064	1016.95679	109.46580	419.73770	1026.27295	-72.64998	400.68784	1092.10583	-51.89035	341.81577	1078.72852	-57.14378	441.38934	1037.91370	-192.58580	321.08994	1069.46753	-176.18588	258.19928	
2183	10.910	1185.50464	969.95526	1020.32159	1311.66638	993.24841	996.91522	1059.41858	1009.06543	1003.91943	1185.14905	1044.71191	902.59491	1447.38330	875.40540	997.92139	1539.72766	768.52289	927.83313	1524.14001	760.53668	1005.95282	1586.21167	870.06030	1040.82617	1620.82214	980.92664	1031.59180	1654.13660	958.70245	1060.26917	869.55713	926.57166	1001.57349	761.70801	886.57013	916.24396	767.69922	854.67102	988.01447	792.08746	991.75140	1044.35181	821.11914	1087.89929	1047.34131	772.94324	1077.14929	1078.59546	1308.36719	699.35815	584.49799	1261.82727	658.71515	769.64789	1341.36218	738.82898	685.82678	1074.86646	681.77747	582.98315	1146.27136	651.60748	765.31494	1048.26172	722.63135	671.21588	1370.30322	521.24799	440.43234	1373.79370	442.90701	359.88437	1381.44153	392.97095	363.28589	1387.33179	443.87869	512.62073	1372.26941	364.38852	425.34210	1369.07678	346.86618	304.64832	1247.83301	332.79077	318.91092	1397.16516	217.10461	315.89676	1386.40442	97.86784	330.74451	1398.79797	224.67218	392.64572	1388.38269	109.99007	412.58627	1380.76160	-65.40675	387.07788	1299.96191	-58.26551	361.69647	1325.04773	-84.31389	450.71313	1388.50818	-156.63034	301.84940	1352.41992	-137.99310	246.80507	1014.79205	517.77319	439.60300	1016.13934	427.59964	329.70062	1011.53094	429.44864	520.47357	1018.24561	342.60312	414.14789	1005.33423	329.04733	328.74551	1128.12854	317.44147	301.02673	988.61127	216.11612	324.51755	1002.46179	230.78116	414.01389	1016.80121	109.52277	419.75015	1026.13574	-72.73702	400.61609	1091.74646	-51.90302	341.86469	1078.34290	-57.18127	441.43771	1037.52844	-192.54529	321.06985	1069.07568	-176.15088	258.25693	
2184	10.915	1185.57581	970.18964	1020.11084	1311.81018	993.39545	996.73639	1059.45251	1009.33038	1003.59283	1185.29749	1044.94226	902.34039	1447.38049	875.44568	997.87115	1539.55640	768.25446	927.77014	1524.03625	760.49225	1006.03723	1586.17407	870.00183	1040.80823	1621.10925	980.63068	1030.95691	1654.16626	958.61090	1060.20142	869.74860	926.73401	1000.99915	761.94623	886.52490	915.68475	767.87762	854.67419	987.55194	791.99921	991.81354	1043.82043	821.01862	1087.94983	1046.89099	772.74921	1077.22241	1077.95593	1308.41479	699.32465	584.42468	1261.87891	658.82513	769.58466	1341.49622	738.82214	685.73724	1074.99414	681.95087	582.84631	1146.33459	651.79034	765.21051	1048.36035	722.82092	671.05121	1370.41406	521.19403	440.46368	1373.38623	441.08014	359.54654	1381.44287	392.87372	363.35571	1387.38025	443.85529	512.65540	1372.21582	364.33292	425.36526	1369.04651	346.82053	304.66397	1247.81921	332.77051	318.91873	1397.74084	217.40294	316.13623	1386.27356	97.83865	330.79584	1398.63391	224.61201	392.67871	1388.22461	109.93945	412.62268	1380.49255	-65.44993	387.15045	1299.76294	-58.26266	361.63815	1324.76477	-84.35319	450.72742	1388.24438	-156.69258	301.87198	1352.18677	-138.02998	246.87396	1014.89728	517.76556	439.41714	1015.72852	427.53317	330.38644	1011.54431	429.56403	520.41449	1018.32556	342.58298	413.96820	1005.35632	329.08820	328.73367	1128.13733	317.41397	301.06036	988.57458	216.24925	324.54083	1001.76477	230.93304	413.79691	1016.59442	109.56042	419.72778	1025.79517	-72.67877	400.63651	1091.45166	-51.89256	341.92545	1078.12073	-57.18081	441.53656	1037.11194	-192.49910	321.05832	1068.64697	-176.11281	258.33353	
